{"title":"The Host 2013 720p HDRip x264 AC3-JYK","uid":8389332,"size":2899169136,"categoryP":"video","categoryS":"hd___movies","magnet":"?xt=urn:btih:a3bce4889b6e465037c8fbc15634d1e64af734e4&amp;dn=The+Host+2013+720p+HDRip+x264+AC3-JYK&amp;tr=udp%3A%2F%2Ftracker.openbittorrent.com%3A80&amp;tr=udp%3A%2F%2Fopen.demonii.com%3A1337&amp;tr=udp%3A%2F%2Ftracker.coppersurfer.tk%3A6969&amp;tr=udp%3A%2F%2Fexodus.desync.com%3A6969","seeders":1,"leechers":0,"uploader":"R0thschild","files":4,"time":1366377821,"description":"--------------------------------------------\n &lt;a href=&quot;\nhttp://www.imdb.com/title/tt1517260/&quot; rel=&quot;nofollow&quot; target=&quot;_NEW&quot;&gt;\nhttp://www.imdb.com/title/tt1517260/&lt;/a&gt;\n\nAction | Adventure | Romance  -  5 April 2013 (Bulgaria)\n5,9 Your rating:   -/10   Ratings: 5,9/10 from 11 818 users   Metascore: 35/100 \nReviews: 134 user | 173 critic | 28 from Metacritic.com\nWhen an unseen enemy threatens mankind by taking over their bodies and erasing their memories, Melanie will risk everything to protect the people she cares most about, proving that love can conquer all in a dangerous new world.\n\nSUBTiTLES.......: Bulgarian\n\nScreens: &lt;a href=&quot;\nhttp://imgsure.com/?p=831229&quot; rel=&quot;nofollow&quot; target=&quot;_NEW&quot;&gt;\nhttp://imgsure.com/?p=831229&lt;/a&gt; &lt;a href=&quot;\nhttp://imgsure.com/?p=783006&quot; rel=&quot;nofollow&quot; target=&quot;_NEW&quot;&gt;\nhttp://imgsure.com/?p=783006&lt;/a&gt;\n\nFormat                           : Matroska\nFormat version                   : Version 2\nFile size                        : 2.70 GiB\nDuration                         : 2h 10mn\nOverall bit rate                 : 2 959 Kbps\nEncoded date                     : UTC 2013-04-18 16:44:43\nWriting application              : mkvmerge v6.1.0 ('Old Devil' built on Mar  2 2013 14:32:37\nWriting library                  : libebml v1.3.0 + libmatroska v1.4.0\n\nVideo\nID                               : 1\nFormat                           : AVC\nFormat/Info                      : Advanced Video Codec\nFormat profile                   : &lt;a class=&quot;__cf_email__&quot; href=&quot;/cdn-cgi/l/email-protection&quot; data-cfemail=&quot;622a0b050a222e564c53&quot;&gt;[email&amp;#160;protected]&lt;/a&gt;&lt;script cf-hash='f9e31' type=&quot;text/javascript&quot;&gt;\n/* &lt;![CDATA[ */!function(){try{var t=&quot;currentScript&quot;in document?document.currentScript:function(){for(var t=document.getElementsByTagName(&quot;script&quot;),e=t.length;e--;)if(t[e].getAttribute(&quot;cf-hash&quot;))return t[e]}();if(t&amp;&amp;t.previousSibling){var e,r,n,i,c=t.previousSibling,a=c.getAttribute(&quot;data-cfemail&quot;);if(a){for(e=&quot;&quot;,r=parseInt(a.substr(0,2),16),n=2;a.length-n;n+=2)i=parseInt(a.substr(n,2),16)^r,e+=String.fromCharCode(i);e=document.createTextNode(e),c.parentNode.replaceChild(e,c)}}}catch(u){}}();/* ]]&gt; */&lt;/script&gt;\nFormat settings, CABAC           : Yes\nFormat settings, ReFrames        : 4 frames\nCodec ID                         : V_MPEG4/ISO/AVC\nDuration                         : 2h 10mn\nBit rate                         : 2 750 Kbps\nWidth                            : 1 280 pixels\nHeight                           : 528 pixels\nDisplay aspect ratio             : 2.40:1\nFrame rate                       : 29.970 fps\nColor space                      : YUV\nChroma subsampling               : 4:2:0\nBit depth                        : 8 bits\nScan type                        : Progressive\nBits/(Pixel*Frame)               : 0.136\nStream size                      : 2.47 GiB (92%)\nWriting library                  : x264 core 125 r2200bm 999b753\n\n\nAudio\nID                               : 2\nFormat                           : AC-3\nFormat/Info                      : Audio Coding 3\nMode extension                   : CM (complete main)\nCodec ID                         : A_AC3\nDuration                         : 2h 10mn\nBit rate mode                    : Constant\nBit rate                         : 192 Kbps\nChannel(s)                       : 2 channels\nChannel positions                : Front: L R\nSampling rate                    : 48.0 KHz\nBit depth                        : 16 bits\nCompression mode                 : Lossy\nStream size                      : 179 MiB (6%)\nLanguage                         : English\n\n--------------------------------------------\n\nMore at   &lt;a href=&quot;\nhttp://publichash.com/&quot; rel=&quot;nofollow&quot; target=&quot;_NEW&quot;&gt;\nhttp://publichash.com/&lt;/a&gt;\n\n--------------------------------------------\t","torrent":{"xt":"urn:btih:a3bce4889b6e465037c8fbc15634d1e64af734e4","amp;dn":"The+Host+2013+720p+HDRip+x264+AC3-JYK","amp;tr":["udp%3A%2F%2Ftracker.openbittorrent.com%3A80","udp%3A%2F%2Fopen.demonii.com%3A1337","udp%3A%2F%2Ftracker.coppersurfer.tk%3A6969","udp%3A%2F%2Fexodus.desync.com%3A6969"],"infoHash":"a3bce4889b6e465037c8fbc15634d1e64af734e4","infoHashBuffer":{"type":"Buffer","data":[163,188,228,136,155,110,70,80,55,200,251,193,86,52,209,230,74,247,52,228]},"announce":[],"urlList":[]}}